PathFileType	4	(X/Y/Z)	C:/Users/opensim2020/Desktop/walking_exp_matlab/subject01_walking09_straight_01.trc																																																																																																																															
DataRate	CameraRate	NumFrames	NumMarkers	Units	OrigDataRate	OrigDataStartFrame	OrigNumFrames																																																																																																																											
100	100	8	43	mm	100	1014	485																																																																																																																											
Frame#	Time	LFHD			RFHD			LBHD			RBHD			C7			T10			CLAV			STRN			RBAK			LSHO			LUPA			LELB			LFRM			LWRA			LWRB			LFIN			RSHO			RUPA			RELB			RFRM			RWRA			RWRB			RFIN			LASI			RASI			LPSI			RPSI			LTHI			LKNE			LTIB			LANK			LHEE			LTOE			RTHI			RKNE			RTIB			RANK			RHEE			RTOE			*39			*40			*41			*42		
		X1	Y1	Z1	X2	Y2	Z2	X3	Y3	Z3	X4	Y4	Z4	X5	Y5	Z5	X6	Y6	Z6	X7	Y7	Z7	X8	Y8	Z8	X9	Y9	Z9	X10	Y10	Z10	X11	Y11	Z11	X12	Y12	Z12	X13	Y13	Z13	X14	Y14	Z14	X15	Y15	Z15	X16	Y16	Z16	X17	Y17	Z17	X18	Y18	Z18	X19	Y19	Z19	X20	Y20	Z20	X21	Y21	Z21	X22	Y22	Z22	X23	Y23	Z23	X24	Y24	Z24	X25	Y25	Z25	X26	Y26	Z26	X27	Y27	Z27	X28	Y28	Z28	X29	Y29	Z29	X30	Y30	Z30	X31	Y31	Z31	X32	Y32	Z32	X33	Y33	Z33	X34	Y34	Z34	X35	Y35	Z35	X36	Y36	Z36	X37	Y37	Z37	X38	Y38	Z38	X39	Y39	Z39	X40	Y40	Z40	X41	Y41	Z41	X42	Y42	Z42	X43	Y43	Z43
																																																																																																																																		
243	2.42	-75.1979	1681.45605	-1129.18542	-65.66796	1692.30676	-1016.26752	-173.76544	1605.18616	-1122.4978	-166.42516	1614.2572	-1002.29803	-173.73506	1436.36218	-1075.43677	-205.96609	1143.07214	-1060.07922	-28.49582	1370.88818	-1072.08032	17.32781	1215.75781	-1074.11621	-225.79391	1243.25696	-992.33264	-88.93347	1396.69226	-1233.68127	-108.17304	1210.56616	-1315.80103	-108.28504	1059.16052	-1315.29858	-54.65198	957.94952	-1335.59448	40.05096	857.14447	-1319.10144	-14.88681	841.91986	-1336.22363	40.46618	779.3501	-1348.65625	-92.43408	1400.60278	-921.37708	-144.19942	1200.85022	-817.43066	-138.98869	1074.67224	-815.91364	-102.57285	958.82703	-788.47156	-14.68358	849.06891	-813.44592	-56.25809	846.15442	-773.07867	-12.38633	773.24426	-775.17902	-31.0761	931.57043	-1161.17468	-34.37507	941.43359	-944.24902	-219.24658	946.59924	-1109.72876	-218.32486	952.77551	-963.60632	-51.92792	597.81128	-1204.26501	-54.28956	464.90216	-1182.2887	-110.71186	283.04779	-1186.66443	-151.42459	69.76817	-1133.25305	-198.97453	41.79651	-1081.28064	-5.09786	34.49584	-1139.08167	-22.40888	616.17572	-867.98615	6.26215	460.07797	-881.95972	-124.19625	341.29947	-883.6178	-248.27747	177.58344	-933.12152	-302.392	167.15848	-991.77893	-162.61917	64.35403	-916.94336	-86.82319	1720.29346	-1039.27527	1973.20313	1023.52972	-3101.93408	2012.51819	1022.08087	-3140.69678	NaN	NaN	NaN
244	2.43	-69.26295	1681.63928	-1129.64465	-59.69316	1692.3103	-1016.50568	-167.88063	1605.49133	-1123.03271	-160.56361	1614.44202	-1002.78729	-168.24857	1436.61047	-1076.12305	-201.10434	1143.33191	-1061.09314	-23.17818	1370.8623	-1072.73303	22.38136	1215.69226	-1074.81311	-220.74904	1243.57898	-993.17474	-83.39025	1396.84863	-1234.28381	-101.91721	1210.83386	-1316.62488	-100.90244	1059.35144	-1316.31799	-46.10189	958.63196	-1336.51392	49.84941	858.99463	-1320.04077	-4.97115	843.20886	-1337.14832	51.18698	781.31317	-1349.66003	-87.0284	1400.78967	-922.06512	-139.33009	1201.05029	-818.13074	-134.7338	1074.81006	-816.91064	-98.78422	958.81445	-789.40234	-11.26768	848.73096	-814.18719	-52.91077	845.9306	-773.89221	-9.30066	772.91962	-776.03094	-26.49664	931.41357	-1161.89075	-29.55759	941.87195	-945.02979	-214.58873	946.62415	-1110.10913	-213.32014	952.83856	-963.94122	-49.14786	597.42273	-1204.51245	-52.48118	464.46585	-1182.64221	-109.59715	282.9249	-1186.64221	-151.27364	69.81569	-1133.15796	-198.66643	41.73302	-1081.09192	-5.03952	34.44992	-1139.06653	-14.2909	617.55402	-868.27728	15.8687	461.54602	-882.48993	-111.40614	339.06787	-884.04254	-231.08337	172.20953	-933.87689	-284.99011	159.87178	-992.43781	-141.53955	62.6776	-916.85718	-80.73254	1720.3064	-1039.74475	1973.11475	1023.23627	-3101.91846	2012.5907	1022.0545	-3140.62964	NaN	NaN	NaN
245	2.44	-63.26517	1681.59192	-1129.95935	-53.85529	1692.14258	-1016.9491	-162.08472	1605.71313	-1123.44812	-154.86601	1614.55981	-1003.31006	-162.89847	1436.71985	-1076.86743	-196.14609	1143.55005	-1061.98828	-17.86766	1370.83789	-1073.36377	27.44789	1215.55347	-1075.45972	-215.72394	1243.85632	-993.93475	-77.86993	1396.87097	-1234.79053	-95.68046	1211.05908	-1317.40332	-93.60614	1059.48145	-1317.24597	-37.50117	959.55664	-1337.40662	59.55936	861.05981	-1321.2832	4.86839	844.45734	-1337.96057	61.78342	783.36365	-1350.65759	-81.76215	1400.66003	-922.81732	-134.42781	1201.17627	-818.79938	-130.46941	1074.91125	-817.79901	-94.96417	958.77911	-790.22809	-7.78172	848.32025	-814.86365	-50.03728	845.60022	-774.68494	-6.25669	772.42786	-776.89844	-21.83933	931.22266	-1162.49695	-24.9822	942.22449	-946.08594	-209.96739	946.57227	-1110.45459	-208.36893	952.95013	-964.19781	-46.52913	597.08075	-1204.77234	-50.78984	463.97272	-1182.86194	-108.58406	282.80701	-1186.62427	-151.12138	69.8539	-1133.10632	-198.64279	41.91286	-1081.02454	-5.0409	34.48372	-1139.2052	-6.86415	618.88538	-868.65796	25.25854	462.95361	-883.11823	-98.54349	336.59781	-884.36194	-213.58914	166.66791	-934.15082	-267.34921	152.4537	-993.05444	-119.80292	60.94599	-916.7868	-74.76263	1720.31653	-1040.11609	1973.13257	1023.96796	-3102.01245	2012.60522	1022.18262	-3140.64307	NaN	NaN	NaN
246	2.45	-57.33239	1681.59973	-1130.23865	-47.97408	1691.94702	-1017.35742	-156.3143	1605.96643	-1123.85229	-149.08784	1614.6178	-1003.71216	-157.61436	1436.96143	-1077.51965	-191.19801	1143.72217	-1062.77917	-12.51788	1370.73206	-1073.9231	32.56216	1215.38306	-1075.99573	-210.70284	1244.03345	-994.76477	-72.41035	1397.08142	-1235.38257	-89.42555	1211.25793	-1318.10791	-86.32396	1059.68567	-1318.08313	-29.18771	960.2489	-1338.302	69.16689	862.99817	-1322.06812	14.65962	845.72412	-1338.60303	72.26784	785.32727	-1351.47815	-76.44639	1400.73535	-923.35565	-129.81174	1201.2135	-819.28528	-126.14123	1074.98254	-818.57318	-91.06946	958.68018	-790.95947	-4.36614	847.9538	-815.51294	-46.16566	845.43451	-775.37689	-3.19321	771.96375	-777.51257	-16.90834	931.07941	-1163.01172	-20.16333	942.53339	-946.71863	-205.34366	946.4967	-1110.65796	-203.58234	953.00739	-964.44275	-43.97936	596.77167	-1205.01013	-49.02605	463.87326	-1183.29053	-107.60931	282.65234	-1186.55481	-150.97375	69.96623	-1133.02258	-198.5659	42.06322	-1080.89502	-5.04454	34.42657	-1139.16113	0.73658	619.85083	-868.80609	34.21007	464.2793	-883.60809	-85.5676	334.11115	-884.55377	-195.57759	160.88556	-934.39362	-249.1557	144.342	-993.11334	-97.68729	59.04872	-916.72174	-68.73406	1720.28979	-1040.35461	1973.06689	1023.39642	-3101.89331	2012.50635	1022.10846	-3140.6875	NaN	NaN	NaN
247	2.46	-51.37183	1681.59094	-1130.52234	-41.95509	1691.86584	-1017.55426	-150.51677	1606.19824	-1124.33606	-143.37898	1614.73059	-1004.08734	-152.1395	1436.93262	-1078.06165	-186.30991	1143.89221	-1063.43274	-7.20546	1370.57751	-1074.35498	37.60584	1215.15674	-1076.47363	-205.66968	1244.17236	-995.50787	-66.88505	1397.10022	-1235.81555	-83.14162	1211.42285	-1318.72925	-79.14585	1059.81616	-1318.88025	-20.92249	960.83832	-1338.98267	78.68366	864.92657	-1322.79297	24.37331	846.98499	-1339.20801	82.72412	787.36725	-1352.20068	-71.24107	1400.49963	-923.96179	-124.6332	1201.28577	-819.94995	-121.78333	1075.02466	-819.26672	-87.23629	958.54041	-791.68311	-0.8094	847.53015	-815.97858	-43.10121	845.0683	-775.9375	-0.03427	771.51324	-778.11139	-13.38519	930.65283	-1163.4054	-15.36765	942.81226	-947.25885	-200.75243	946.4071	-1110.8562	-198.93581	952.95001	-964.60254	-41.42927	596.45135	-1205.21411	-47.38499	463.4462	-1183.47461	-106.67355	282.52985	-1186.54919	-150.87141	69.99711	-1132.94324	-198.646	42.24052	-1080.78906	-5.06288	34.48204	-1139.15698	7.77135	620.91846	-868.92303	43.15947	465.49313	-884.20178	-72.60912	331.49292	-884.69519	-177.30162	154.69217	-934.44232	-229.87608	136.06531	-992.85144	-75.04272	57.12302	-916.68396	-62.68192	1720.25012	-1040.55176	1973.04688	1023.40967	-3101.89429	2012.5896	1022.06635	-3140.72559	NaN	NaN	NaN
248	2.47	-45.43811	1681.49133	-1130.73682	-36.04174	1691.69092	-1017.87408	-144.78964	1606.37415	-1124.62585	-137.65714	1614.78638	-1004.48944	-146.79346	1436.98474	-1078.54602	-181.34659	1143.97839	-1064.02563	-1.86533	1370.37207	-1074.75623	42.67131	1214.90906	-1076.89771	-200.60437	1244.24146	-996.19513	-61.38788	1397.12537	-1236.25732	-76.87109	1211.54163	-1319.28174	-72.01189	1059.86414	-1319.59106	-12.65455	961.54095	-1339.69312	88.14719	866.85315	-1323.41138	34.02707	848.21545	-1339.77588	93.05826	789.31165	-1352.79932	-66.08062	1400.40686	-924.3938	-119.75854	1201.27832	-820.42133	-117.35772	1074.99829	-819.9057	-83.32954	958.44775	-792.18793	2.62887	847.05737	-816.40155	-39.26085	844.88312	-776.50275	3.0327	771.03015	-778.48779	-8.86768	930.36694	-1163.8208	-10.56334	943.1059	-947.72241	-196.2018	946.25885	-1110.93823	-193.96768	952.78107	-964.72308	-39.00017	596.09344	-1205.34216	-45.76227	463.09573	-1183.60059	-105.72717	282.40063	-1186.47217	-150.75919	70.05776	-1132.87634	-198.61504	42.34225	-1080.65417	-5.06413	34.45148	-1139.20422	14.46652	621.80457	-869.03107	51.50821	466.39117	-884.86639	-59.88469	328.72717	-884.62854	-158.71858	148.54512	-934.25183	-210.99095	127.95563	-992.60339	-52.65483	55.63228	-916.46051	-56.68797	1720.11169	-1040.81348	1973.21326	1023.50378	-3101.80591	2012.55737	1022.0022	-3140.69458	NaN	NaN	NaN
249	2.48	-39.46223	1681.4281	-1130.94666	-30.07398	1691.5426	-1017.96234	-139.02267	1606.52283	-1125.02283	-131.88274	1614.87109	-1004.75897	-141.44327	1437.06531	-1078.89197	-176.31578	1144.00745	-1064.47339	3.46632	1370.12073	-1075.05176	47.7117	1214.64294	-1077.3175	-195.52998	1244.21973	-996.78687	-55.83509	1396.99292	-1236.39795	-70.57994	1211.67908	-1319.78601	-65.03371	1059.85925	-1320.19214	-4.45922	962.3385	-1340.27869	97.57664	868.79742	-1324.00671	43.64026	849.46796	-1340.18628	103.22814	791.17566	-1353.1051	-60.81805	1400.38733	-924.64471	-114.94489	1201.18066	-820.84802	-112.88033	1074.92346	-820.33337	-79.4223	958.26819	-792.65363	6.17551	846.52954	-816.77594	-36.15281	844.44714	-776.76813	6.24146	770.45099	-778.88739	-4.20469	929.85669	-1164.49475	-5.45458	943.37006	-947.83734	-191.61459	946.08716	-1111.06201	-189.40274	953.02417	-964.70636	-36.48159	595.75153	-1205.32678	-43.90512	462.66754	-1183.76514	-104.60149	282.26328	-1186.37842	-150.62502	70.13766	-1132.74463	-198.60982	42.36927	-1080.41248	-5.0083	34.43932	-1139.13928	20.77514	622.57257	-869.06073	59.3697	467.3147	-885.02075	-46.94544	326.08038	-884.39465	-139.44936	142.75592	-933.59595	-192.29398	119.56804	-992.10181	-29.87597	54.10858	-916.22394	-50.65257	1719.99158	-1041.07605	1973.13086	1023.37726	-3101.99365	2012.60461	1022.13239	-3140.68579	NaN	NaN	NaN
250	2.49	-33.52668	1681.32385	-1131.24426	-24.12795	1691.31055	-1018.13623	-133.22652	1606.66272	-1125.17798	-126.19653	1614.93225	-1004.97388	-136.14168	1437.08337	-1079.28674	-171.35472	1144.00891	-1064.77148	8.815	1369.8949	-1075.25024	52.86823	1214.35999	-1077.59717	-190.42311	1244.19568	-997.23602	-50.38567	1396.98218	-1236.78894	-64.33324	1211.72192	-1320.18494	-58.06328	1059.89807	-1320.71387	3.58175	962.82721	-1340.76343	106.88567	870.74481	-1324.50391	53.1647	850.75397	-1340.52942	113.57346	793.16174	-1353.45886	-55.5878	1400.01709	-924.95508	-110.24912	1201.05322	-821.29224	-108.41885	1074.87805	-820.75995	-75.42297	958.05896	-793.07263	9.7247	846.01666	-817.02612	-32.73469	844.03137	-777.04053	9.45511	770.00684	-779.08893	0.25784	929.52478	-1164.87415	-0.60026	943.54572	-948.21918	-187.06569	945.95612	-1111.06702	-184.55612	952.84222	-964.95264	-33.81535	595.34784	-1205.3468	-42.10857	462.2392	-1183.79553	-103.44144	282.16669	-1186.302	-150.48094	70.26286	-1132.63867	-198.91396	42.78001	-1080.25415	-5.09359	34.42294	-1139.2384	26.87567	623.15723	-869.1402	67.19572	468.37604	-885.39581	-34.57388	323.39514	-884.07678	-120.43777	136.33632	-933.30164	-171.73473	111.08529	-991.28375	-6.97933	52.97569	-915.7677	-44.64972	1719.89746	-1041.20178	1973.13306	1023.48022	-3101.98218	2012.50403	1022.0611	-3140.72095	NaN	NaN	NaN
